Coordinates
version=1
nRows=22
nColumns=24
inDegrees=yes

Units are S.I. units (second, meters, Newtons, ...)
Angles are in degrees.

endheader
time	pelvis_tilt	pelvis_list	pelvis_rotation	pelvis_tx	pelvis_ty	pelvis_tz	hip_flexion_r	hip_adduction_r	hip_rotation_r	knee_angle_r	ankle_angle_r	subtalar_angle_r	mtp_angle_r	hip_flexion_l	hip_adduction_l	hip_rotation_l	knee_angle_l	ankle_angle_l	subtalar_angle_l	mtp_angle_l	lumbar_extension	lumbar_bending	lumbar_rotation
      0.50800000	     -3.40978900	      2.17583834	      3.63334469	     -0.75842723	      1.01934669	      0.29200122	     25.09300555	     -0.07699776	     -6.89579888	     -0.05671163	      5.49478579	      1.12207209	      9.18568006	     -6.21130188	      7.17596398	      3.67059116	    -15.16420526	     12.38634904	     -4.15847011	     -3.85107390	     -4.26897319	     -4.94084824	     -4.00891100
      0.51216667	     -3.34508421	      2.08637239	      3.71727089	     -0.75272205	      1.01916565	      0.29200160	     24.99836226	      0.08169319	     -6.76552279	     -0.47410673	      5.65598589	      0.91373133	      9.21617355	     -6.28320782	      7.03717230	      3.64010056	    -15.83166138	     12.39041678	     -3.97966962	     -3.82422301	     -4.30715529	     -4.84272344	     -4.07636419
      0.51633333	     -3.31905876	      1.98613660	      3.80446798	     -0.74699210	      1.01893596	      0.29200539	     24.94839967	      0.24785015	     -6.62067921	     -0.93655471	      5.71664241	      0.60272929	      9.26887062	     -6.27585265	      6.88327626	      3.56256511	    -16.57168843	     12.39620134	     -3.72471209	     -3.76185265	     -4.28124088	     -4.72885872	     -4.15230504
      0.52050000	     -3.24276305	      1.87751054	      3.89364206	     -0.74121950	      1.01881010	      0.29199399	     24.83103495	      0.42279586	     -6.44999178	     -1.41310992	      5.73906862	      0.22332292	      9.33779805	     -6.30932162	      6.71535395	      3.47293285	    -17.33622556	     12.35179462	     -3.49345473	     -3.66983740	     -4.31749277	     -4.59757368	     -4.22065581
      0.52466667	     -3.16918914	      1.76107209	      3.98023301	     -0.73541846	      1.01869399	      0.29200653	     24.70864817	      0.60927548	     -6.24722316	     -1.89343452	      5.62386942	     -0.27916330	      9.44857225	     -6.31204356	      6.53021388	      3.32782906	    -18.14754831	     12.30630230	     -3.20620465	     -3.50112023	     -4.34424923	     -4.47623590	     -4.29807276
      0.52883333	     -3.06923683	      1.64770277	      4.07214031	     -0.72958500	      1.01864825	      0.29200452	     24.54146263	      0.79190732	     -6.00595373	     -2.36901649	      5.50098934	     -0.82158064	      9.58369220	     -6.33414530	      6.34895766	      3.22073390	    -18.97353435	     12.18851216	     -2.98342889	     -3.28164865	     -4.40362211	     -4.34298772	     -4.36955612
      0.53300000	     -2.99562076	      1.52700401	      4.16626974	     -0.72370954	      1.01857939	      0.29201100	     24.39117805	      0.98170059	     -5.74406260	     -2.83535755	      5.29558772	     -1.42838299	      9.73661926	     -6.30398680	      6.15704407	      3.09600393	    -19.84482759	     12.03974170	     -2.74829712	     -3.01034695	     -4.41658386	     -4.20056420	     -4.44746423
      0.53716667	     -2.88259947	      1.39466109	      4.25867863	     -0.71777431	      1.01859806	      0.29202128	     24.17536579	      1.18769319	     -5.45612478	     -3.27084781	      5.07588899	     -2.03640307	      9.87611392	     -6.30513662	      5.94518299	      2.96226456	    -20.72250186	     11.78865338	     -2.52624163	     -2.74466341	     -4.46579338	     -4.02050711	     -4.51577086
      0.54133333	     -2.77998649	      1.28478516	      4.35306342	     -0.71186845	      1.01861329	      0.29206147	     23.97605484	      1.37198624	     -5.15233811	     -3.71346584	      4.70619147	     -2.78293187	     10.06652856	     -6.26408717	      5.75088249	      2.80119670	    -21.65869836	     11.59334961	     -2.28747024	     -2.34321581	     -4.52118333	     -3.91456771	     -4.58547700
      0.54550000	     -2.69143837	      1.17142642	      4.42186699	     -0.70587892	      1.01864251	      0.29213483	     23.76940569	      1.57011182	     -4.78360879	     -4.11655474	      4.30477399	     -3.53999178	     11.67563567	     -6.20838708	      5.55642691	      2.63055759	    -22.56900757	     11.09614059	     -2.25232380	      1.21713656	     -4.51281467	     -3.79548664	     -4.43865642
      0.54966667	     -2.53422254	      1.02947684	      4.54789668	     -0.69987980	      1.01879957	      0.29214642	     23.48234514	      1.77377210	     -4.58935476	     -4.51295015	      3.90838737	     -4.12436183	     11.70947172	     -6.18141053	      5.29664755	      2.41953590	    -23.56976753	     10.79837022	     -1.88382915	      1.36035931	     -4.64409132	     -3.60191519	     -4.72936686
      0.55383333	     -2.44040511	      0.91186685	      4.64548926	     -0.69385037	      1.01889301	      0.29223017	     23.24444525	      1.96835338	     -4.24344237	     -4.86851989	      3.41703901	     -4.90071159	     11.76687680	     -6.07538456	      5.07152220	      2.21066567	    -24.57814671	     10.36023997	     -1.66771668	      1.59910674	     -4.65926157	     -3.47104988	     -4.77158148
      0.55800000	     -2.31977463	      0.78859901	      4.74018312	     -0.68779376	      1.01904625	      0.29233788	     22.96720985	      2.17083747	     -3.91371736	     -5.20089643	      2.89953445	     -5.63927104	     11.84120384	     -5.97576833	      4.82411492	      1.95287169	    -25.60918030	      9.85793007	     -1.42588651	      1.92821628	     -4.70842456	     -3.32605216	     -4.83259212
      0.56216667	     -2.19458237	      0.67087086	      4.84444338	     -0.68171564	      1.01924726	      0.29244227	     22.68008978	      2.35972953	     -3.63653925	     -5.52491380	      2.37770977	     -6.29024365	     12.85875608	     -5.86595931	      4.57304504	      1.70146699	    -26.64629687	      9.14184375	     -1.27313142	      6.29741497	     -4.75623879	     -3.19917872	     -4.84770070
      0.56633333	     -2.07815426	      0.53982715	      4.94523252	     -0.67560465	      1.01946045	      0.29257570	     22.39163071	      2.56476651	     -3.34519409	     -5.82742361	      1.84860920	     -6.95533599	     12.85655075	     -5.71624612	      4.29413879	      1.40249644	    -27.73128606	      8.49865533	     -1.04042390	      6.40414515	     -4.79310879	     -3.04345271	     -4.93876401
      0.57050000	     -1.98134386	      0.42713844	      5.04592254	     -0.66949966	      1.01966795	      0.29273418	     22.12083694	      2.74856912	     -3.05301002	     -6.12284524	      1.31713307	     -7.61048306	     12.87075243	     -5.52284438	      4.02903871	      1.10605112	    -28.84352690	      7.75826702	     -0.83916721	      6.62968960	     -4.80297415	     -2.92340195	     -4.98103458
      0.57466667	     -1.86391203	      0.30387192	      5.16397051	     -0.66336232	      1.01994765	      0.29290237	     21.81143720	      2.93976391	     -2.78765643	     -6.38972382	      0.81511697	     -8.25948174	     12.90777509	     -5.32680840	      3.73076159	      0.79233020	    -29.97851569	      6.91117733	     -0.61818316	      7.07633424	     -4.83092542	     -2.79454878	     -5.02051698
      0.57883333	     -1.75386190	      0.17969180	      5.25714189	     -0.65724097	      1.02023606	      0.29309629	     21.51983006	      3.13260035	     -2.54546630	     -6.66871260	      0.26971902	     -8.80302828	     12.94262645	     -5.09632665	      3.42641222	      0.44161590	    -31.14387464	      6.02490459	     -0.46023315	      7.54374196	     -4.86136111	     -2.64893218	     -5.07905607
      0.58300000	     -1.65227243	      0.06019457	      5.37603161	     -0.65109145	      1.02055977	      0.29327747	     21.23817040	      3.30393972	     -2.40787753	     -6.96519460	     -0.11868701	     -9.17825792	     13.40150186	     -4.83707129	      3.11047304	      0.11088076	    -32.30196254	      4.86280820	     -0.34773519	     13.09244360	     -4.86531358	     -2.52871127	     -5.06267757
      0.58716667	     -1.57414802	     -0.06134404	      5.48493533	     -0.64496287	      1.02086531	      0.29348941	     20.98112370	      3.47933134	     -2.24089631	     -7.26002455	     -0.50349487	     -9.58918437	     13.39304235	     -4.51571276	      2.78594485	     -0.24071369	    -33.51694083	      3.76295291	     -0.23371036	     13.18684892	     -4.85188873	     -2.40006450	     -5.14423967
      0.59133333	     -1.46756199	     -0.19489030	      5.60485051	     -0.63882529	      1.02126196	      0.29370422	     20.67721757	      3.66559066	     -2.10306436	     -7.52278024	     -0.87968655	    -10.00669157	     13.38542095	     -4.20156911	      2.43219470	     -0.58074638	    -34.74951128	      2.56561357	     -0.11007035	     13.42745352	     -4.86722582	     -2.26167647	     -5.17587572
      0.59550000	     -1.36957814	     -0.32176664	      5.72588753	     -0.63269326	      1.02166749	      0.29390560	     20.39687928	      3.82950914	     -2.07428092	     -7.82849857	     -1.06529537	    -10.11442468	     13.38274280	     -3.85217233	      2.07689751	     -0.91698051	    -35.99742911	      1.28913193	      0.03872707	     13.53916663	     -4.86222846	     -2.12850922	     -5.18328200
